<?xml version="1.0" standalone="no"?>
<!DOCTYPE svg PUBLIC "-//W3C//DTD SVG 20010904//EN"
 "http://www.w3.org/TR/2001/REC-SVG-20010904/DTD/svg10.dtd">
<svg version="1.0" xmlns="http://www.w3.org/2000/svg"
 width="984.000000pt" height="984.000000pt" viewBox="0 0 984.000000 984.000000"
 preserveAspectRatio="xMidYMid meet">
<metadata>
Created by potrace 1.14, written by Peter Selinger 2001-2017
</metadata>
<g transform="translate(0.000000,984.000000) scale(0.100000,-0.100000)"
fill="#000000" stroke="none">
<path d="M779 9836 c-2 -3 -16 -7 -29 -10 -76 -16 -109 -28 -176 -62 -41 -21
-100 -61 -131 -91 -32 -29 -60 -53 -63 -53 -13 -1 -110 -172 -110 -196 0 -8
-5 -14 -10 -14 -6 0 -9 -3 -8 -7 1 -5 -4 -30 -12 -58 -13 -44 -15 -598 -15
-4420 0 -2403 3 -4386 8 -4405 15 -69 59 -169 100 -229 79 -115 224 -224 340
-256 4 -2 8 -3 10 -4 2 -3 13 -5 90 -20 58 -10 8298 -8 8341 3 16 4 39 12 50
18 12 6 22 11 23 10 12 -7 100 38 168 85 128 88 221 229 261 393 11 45 13 816
14 4406 0 3786 -2 4357 -15 4393 -8 23 -14 45 -15 49 -3 53 -108 238 -150 264
-11 7 -20 17 -20 23 0 13 -142 108 -195 130 -22 10 -71 26 -110 36 -68 18
-199 19 -4206 19 -2275 0 -4138 -2 -4140 -4z m8202 -565 c31 -1 65 -28 77 -62
4 -13 8 -1950 7 -4304 -1 -3573 -3 -4283 -14 -4301 -8 -11 -25 -25 -40 -30
-16 -6 -1520 -10 -4097 -9 -3499 0 -4073 2 -4088 14 -9 8 -22 24 -29 35 -13
24 -18 8544 -5 8595 10 36 44 59 94 63 32 2 8006 1 8095 -1z"/>
<path d="M3115 7448 c-8 -5 -15 -6 -15 -3 0 11 -63 -27 -89 -54 -14 -15 -44
-49 -66 -76 -22 -28 -44 -55 -50 -61 -5 -6 -23 -28 -40 -49 -16 -21 -35 -43
-40 -49 -6 -6 -28 -33 -50 -61 -22 -27 -44 -55 -50 -61 -5 -6 -26 -30 -45 -54
-34 -43 -105 -127 -120 -143 -4 -5 -35 33 -70 83 -74 110 -90 126 -142 150
-36 16 -104 20 -148 9 -22 -6 -83 -50 -100 -74 -43 -59 -55 -135 -29 -197 10
-26 144 -233 277 -427 53 -77 118 -113 197 -110 54 2 145 44 145 67 0 7 5 10
10 7 6 -3 10 0 10 9 0 8 3 16 8 18 4 2 25 26 47 53 22 28 42 52 45 55 3 3 25
30 49 60 25 30 50 60 55 65 6 6 27 30 46 55 19 25 37 47 40 50 3 3 24 28 45
55 22 28 42 52 45 55 3 3 57 68 120 145 63 77 120 146 127 153 7 7 13 20 13
28 0 8 4 14 8 14 5 0 9 6 9 13 1 6 3 29 6 50 12 81 -32 164 -108 205 -37 20
-119 31 -140 20z"/>
<path d="M4484 7281 c-2 -3 -17 -5 -32 -6 -78 -2 -185 -88 -216 -174 -23 -65
-25 -90 -14 -154 20 -109 92 -188 199 -220 66 -20 3015 -17 3077 3 23 7 42 17
42 22 0 4 6 8 13 8 17 0 84 66 92 90 3 11 11 20 17 20 6 0 8 3 5 6 -3 4 -1 16
5 28 16 29 19 137 4 178 -38 105 -121 181 -211 192 -22 2 -41 5 -42 6 -8 6
-50 3 -61 -4 -6 -4 -12 -4 -12 1 0 4 -29 8 -65 8 -36 0 -65 -4 -65 -9 0 -5 -6
-4 -12 0 -16 11 -68 11 -85 1 -7 -5 -13 -5 -13 0 0 4 -29 8 -65 8 -36 0 -65
-4 -65 -9 0 -5 -6 -4 -12 0 -16 11 -68 11 -85 1 -7 -5 -13 -5 -13 0 0 4 -29 8
-65 8 -36 0 -65 -4 -65 -9 0 -5 -6 -4 -12 0 -16 11 -68 11 -85 1 -7 -5 -13 -5
-13 0 0 4 -29 8 -65 8 -36 0 -65 -4 -65 -9 0 -5 -6 -4 -12 0 -16 11 -68 11
-85 1 -7 -5 -13 -5 -13 0 0 4 -29 8 -65 8 -36 0 -65 -4 -65 -9 0 -5 -6 -4 -12
0 -16 11 -68 11 -85 1 -7 -5 -13 -5 -13 0 0 4 -29 8 -65 8 -36 0 -65 -4 -65
-9 0 -5 -6 -4 -12 0 -16 11 -68 11 -85 1 -7 -5 -13 -5 -13 0 0 4 -29 8 -65 8
-36 0 -65 -4 -65 -9 0 -5 -6 -4 -12 0 -16 11 -68 11 -85 1 -7 -5 -13 -5 -13 0
0 4 -29 8 -65 8 -36 0 -65 -4 -65 -9 0 -5 -6 -4 -12 0 -16 11 -68 11 -85 1 -7
-5 -13 -5 -13 0 0 4 -29 8 -65 8 -36 0 -65 -4 -65 -9 0 -5 -6 -4 -12 0 -16 11
-68 11 -85 1 -7 -5 -13 -5 -13 0 0 4 -29 8 -65 8 -36 0 -65 -4 -65 -9 0 -5 -6
-4 -12 0 -16 11 -68 11 -85 1 -7 -5 -13 -5 -13 0 0 4 -29 8 -65 8 -36 0 -65
-4 -65 -9 0 -5 -6 -4 -12 0 -16 11 -68 11 -85 1 -7 -5 -13 -5 -13 0 0 4 -29 8
-65 8 -36 0 -65 -4 -65 -8 0 -5 -5 -5 -12 -1 -14 9 -76 12 -84 5z"/>
<path d="M3110 5453 c-67 -21 -95 -47 -231 -214 -20 -24 -72 -87 -115 -139
-44 -53 -108 -132 -144 -177 -36 -45 -69 -82 -75 -82 -5 -1 -36 39 -67 87 -76
115 -76 115 -129 140 -55 26 -77 29 -143 18 -98 -16 -172 -129 -155 -237 7
-42 52 -129 72 -137 4 -2 7 -10 7 -18 0 -8 5 -14 10 -14 6 0 10 -6 10 -14 0
-8 4 -16 8 -18 4 -1 50 -66 101 -143 107 -160 130 -188 179 -211 102 -48 194
-16 287 100 17 20 39 48 50 60 11 13 56 67 100 121 44 55 89 109 101 122 11
12 29 34 40 49 10 14 24 31 29 38 23 25 72 85 100 120 17 21 39 48 50 60 11
12 40 47 64 79 24 31 47 57 52 57 5 0 9 7 9 15 0 8 4 15 9 15 13 0 33 65 36
114 3 43 -21 109 -52 146 -39 46 -147 80 -203 63z"/>
<path d="M4420 5161 c-37 -12 -82 -37 -111 -63 -28 -25 -75 -99 -71 -110 1 -5
-1 -8 -5 -8 -9 0 -14 -34 -15 -95 -1 -113 61 -208 171 -258 l46 -22 1520 1
1520 0 45 22 c176 86 224 312 96 445 -43 44 -75 71 -89 74 -4 1 -24 7 -45 13
-43 12 -3022 13 -3062 1z"/>
<path d="M3120 3459 c0 -4 -8 -6 -17 -5 -33 5 -83 -38 -174 -149 -49 -60 -102
-123 -117 -140 -15 -16 -39 -46 -52 -64 -14 -19 -37 -47 -51 -61 -14 -15 -30
-33 -35 -42 -8 -14 -44 -58 -113 -136 l-20 -24 -27 44 c-15 24 -40 60 -56 81
-16 20 -27 37 -23 37 10 0 -37 45 -72 69 -17 11 -52 24 -77 27 -125 18 -235
-77 -238 -203 -1 -57 14 -90 97 -212 38 -57 75 -111 80 -119 6 -9 31 -46 57
-84 27 -37 48 -71 48 -74 0 -3 6 -11 13 -18 6 -8 19 -24 27 -36 22 -32 98 -67
151 -69 80 -2 125 26 227 142 17 21 32 42 32 47 0 5 8 15 18 22 9 7 29 29 43
48 15 19 41 50 58 69 17 19 31 37 31 41 0 3 15 21 33 40 18 19 50 58 72 85 22
28 47 59 57 70 165 197 243 296 255 325 45 104 1 226 -100 273 -35 17 -127 28
-127 16z"/>
<path d="M4404 3042 c-51 -18 -65 -27 -110 -72 -80 -79 -101 -211 -50 -314 26
-54 106 -134 127 -128 5 1 9 -2 9 -7 0 -24 142 -29 940 -27 l835 1 58 28 c63
32 125 103 146 169 42 129 -22 275 -146 338 l-48 25 -855 2 c-794 2 -859 1
-906 -15z"/>
</g>
</svg>
